<?xml version="1.0" standalone="no"?>
<!DOCTYPE svg PUBLIC "-//W3C//DTD SVG 20010904//EN"
 "http://www.w3.org/TR/2001/REC-SVG-20010904/DTD/svg10.dtd">
<svg version="1.0" xmlns="http://www.w3.org/2000/svg"
 width="150.000000pt" height="150.000000pt" viewBox="0 0 150.000000 150.000000"
 preserveAspectRatio="xMidYMid meet">
<metadata>
Created by potrace 1.10, written by Peter Selinger 2001-2011
</metadata>
<g transform="translate(0.000000,150.000000) scale(0.100000,-0.100000)"
fill="#000000" stroke="none">
<path d="M574 1471 c-337 -83 -564 -373 -564 -723 0 -484 444 -832 917 -718
331 79 563 376 563 720 0 309 -181 575 -467 688 -43 17 -102 35 -131 41 -79
16 -236 12 -318 -8z m-88 -315 c39 -39 45 -89 17 -137 -18 -30 -67 -59 -100
-59 -46 0 -113 68 -113 115 0 31 32 86 59 100 14 8 43 14 65 15 30 0 45 -7 72
-34z m595 -263 c35 -18 64 -43 84 -71 l30 -44 3 -234 3 -234 -105 0 -106 0 0
198 c0 231 -3 242 -74 242 -85 0 -95 -30 -96 -277 l0 -163 -110 0 -110 0 0
295 0 295 110 0 110 0 0 -32 0 -32 33 31 c46 44 66 52 123 53 36 0 66 -8 105
-27z m-571 -283 l0 -290 -100 0 -100 0 0 290 0 290 100 0 100 0 0 -290z"/>
</g>
</svg>
